# xmcd CD database file
# Copyright (C) 1995-1998 Ti Kan
#
# Track frame offsets:
#	150
#	19817
#	41996
#	62417
#	80880
#	113846
#	136755
#	169101
#	186298
#	206198
#	224329
#	240837
#	261889
#	283898
#
# Disc length: 4330 seconds
#
# Revision: 4
# Processed by: cddbd v1.4b42PL1 Copyright (c) Steve Scherf et al.
# Submitted via: CDex 1.30Release
#
DISCID=d210e80e
DTITLE=Albert King - Guitar Man
DYEAR=2001
DGENRE=Blues
TTITLE0=Cadillac Assembly Line
TTITLE1=Nobody Wants A Loser
TTITLE2=Truckload of Lovin'
TTITLE3=Cold Women with Warm Hearts
TTITLE4=Sensation, Communication Together
TTITLE5=Guitar Man
TTITLE6=Ain't Nuthin You Can Do
TTITLE7=Running out of Steam
TTITLE8=Call My Job
TTITLE9=Love Shock
TTITLE10=Chump Change
TTITLE11=Good Time Charley
TTITLE12=The Feeling
TTITLE13=I Got the Blues
EXTD=YEAR: 2001 ID3G:   0
EXTT0=
EXTT1=
EXTT2=
EXTT3=
EXTT4=
EXTT5=
EXTT6=
EXTT7=
EXTT8=
EXTT9=
EXTT10=
EXTT11=
EXTT12=
EXTT13=
PLAYORDER=
